<svg width="560" height="560" viewBox="0 0 560 560" fill="none" xmlns="http://www.w3.org/2000/svg">
<path fill-rule="evenodd" clip-rule="evenodd" d="M336 149.33C336 144.178 340.184 139.998 345.336 139.998C350.485 139.998 354.668 144.178 354.668 149.33C354.668 154.483 350.485 158.666 345.336 158.666C340.184 158.666 336 154.483 336 149.33ZM364 93.3304C369.153 93.3304 373.336 97.514 373.336 102.666C373.336 107.819 369.153 111.998 364 111.998C358.848 111.998 354.668 107.819 354.668 102.666C354.668 97.514 358.848 93.3304 364 93.3304V93.3304ZM410.668 111.998C431.258 111.998 448 128.74 448 149.33C448 169.92 431.258 186.666 410.668 186.666C390.078 186.666 373.336 169.92 373.336 149.33C373.336 128.74 390.078 111.998 410.668 111.998V111.998ZM410.668 74.6664C415.821 74.6664 420 78.8461 420 83.9984C420 89.1507 415.821 93.3304 410.668 93.3304C405.516 93.3304 401.336 89.1507 401.336 83.9984C401.336 78.8461 405.516 74.6664 410.668 74.6664ZM457.336 93.3304C462.485 93.3304 466.668 97.514 466.668 102.666C466.668 107.819 462.485 111.998 457.336 111.998C452.184 111.998 448.001 107.819 448.001 102.666C448.001 97.514 452.184 93.3304 457.336 93.3304ZM476 139.998C481.153 139.998 485.336 144.178 485.336 149.33C485.336 154.483 481.153 158.666 476 158.666C470.848 158.666 466.668 154.483 466.668 149.33C466.668 144.178 470.848 139.998 476 139.998ZM457.336 205.33C452.184 205.33 448.001 201.151 448.001 195.998C448.001 190.846 452.184 186.666 457.336 186.666C462.485 186.666 466.668 190.846 466.668 195.998C466.668 201.151 462.485 205.33 457.336 205.33ZM410.668 223.998C405.516 223.998 401.336 219.819 401.336 214.666C401.336 209.514 405.516 205.33 410.668 205.33C415.821 205.33 420 209.514 420 214.666C420 219.819 415.821 223.998 410.668 223.998ZM364 205.33C358.848 205.33 354.668 201.151 354.668 195.998C354.668 190.846 358.848 186.666 364 186.666C369.153 186.666 373.336 190.846 373.336 195.998C373.336 201.151 369.153 205.33 364 205.33ZM410.668 242.666C462.133 242.666 504 200.795 504 149.33C504 97.8694 462.133 55.9984 410.668 55.9984C359.203 55.9984 317.336 97.8694 317.336 149.33C317.336 200.795 359.203 242.666 410.668 242.666Z" fill="black"/>
<path fill-rule="evenodd" clip-rule="evenodd" d="M410.67 168C420.963 168 429.338 159.629 429.338 149.332C429.338 139.039 420.963 130.668 410.67 130.668C400.373 130.668 392.002 139.039 392.002 149.332C392.002 159.629 400.374 168 410.67 168Z" fill="black"/>
<path fill-rule="evenodd" clip-rule="evenodd" d="M541.341 436.11C527.646 420.551 507.646 410.665 485.341 410.665C444.169 410.665 410.672 444.165 410.672 485.333C410.672 503.345 417.083 519.895 427.75 532.802L150.3 492.204C182.976 475.001 205.339 440.747 205.339 401.333C205.339 344.716 159.277 298.663 102.669 298.663C97.1422 298.663 91.7475 299.226 86.4585 300.074L263.858 122.674C262.288 131.334 261.339 140.221 261.339 149.33C261.339 231.67 328.331 298.66 410.669 298.66C466.857 298.66 515.849 267.433 541.339 221.457L541.341 436.11ZM485.341 494.665C480.188 494.665 476.005 490.486 476.005 485.333C476.005 480.173 480.188 476.001 485.341 476.001C490.489 476.001 494.672 480.173 494.672 485.333C494.672 490.486 490.489 494.665 485.341 494.665ZM56.0005 401.333C56.0005 375.603 76.9345 354.665 102.668 354.665C128.398 354.665 149.336 375.603 149.336 401.333C149.336 427.063 128.398 448.001 102.668 448.001C76.9345 448.001 56.0005 427.063 56.0005 401.333ZM410.67 37.3334C472.428 37.3334 522.67 87.5634 522.67 149.333C522.67 211.091 472.428 261.333 410.67 261.333C348.912 261.333 298.67 211.091 298.67 149.333C298.67 87.5634 348.912 37.3334 410.67 37.3334ZM410.67 0.00136C352.123 0.00136 301.48 33.9464 277.02 83.1144L40.0705 320.064C40.0236 320.103 40.0119 320.166 39.965 320.213C15.707 339.002 0 368.338 0 401.33C0 457.592 45.512 503.38 101.65 503.94L465.08 557.131C471.529 558.951 478.303 559.998 485.334 559.998H485.35C526.51 559.978 559.998 526.49 559.998 485.33V149.33C559.998 66.982 493.006 0 410.668 0L410.67 0.00136Z" fill="black"/>
<path fill-rule="evenodd" clip-rule="evenodd" d="M130.67 401.33C130.67 385.892 118.108 373.33 102.67 373.33C87.2324 373.33 74.6704 385.892 74.6704 401.33C74.6704 416.768 87.2324 429.33 102.67 429.33C118.108 429.33 130.67 416.768 130.67 401.33Z" fill="black"/>
</svg>
