<svg width="549" height="441" viewBox="0 0 549 441" fill="none" xmlns="http://www.w3.org/2000/svg">
<path d="M29.0084 199.025H43.0084C41.5514 200.966 40.1725 202.834 38.8639 204.627C25.2429 225.272 18.3169 249.619 19.0399 274.346V411.376C19.0399 418.981 22.0594 426.274 27.4383 431.649C32.8172 437.027 40.1103 440.047 47.7113 440.047H84.7853C92.3869 440.047 99.6803 437.027 105.058 431.649C110.433 426.274 113.457 418.981 113.457 411.376V389.872H348.657V268.462C329.954 262.634 313.598 250.993 301.966 235.232C290.333 219.47 284.032 200.412 283.978 180.822V47.3716C283.931 31.9736 287.786 16.8096 295.177 3.3016H274.626C242.435 2.57504 210.243 4.6532 178.415 9.5164C159.149 12.8758 131.263 20.7154 112.11 48.0434C101.356 63.5554 84.1097 102.082 70.5007 136.074H70.5046C62.0476 127.438 50.6566 122.281 38.5826 121.629H27.9966H28.0005C20.606 121.731 13.5435 124.711 8.3125 129.942C3.082 135.168 0.1016 142.235 0 149.63V169.958C0.12891 177.614 3.2266 184.923 8.6367 190.345C14.0469 195.767 21.3517 198.876 29.0077 199.021L29.0084 199.025ZM92.3994 252.841C92.4384 245.935 95.6611 239.435 101.134 235.22C106.606 231.009 113.716 229.556 120.4 231.283L172.873 245.059V245.056C179.713 247.099 185.17 252.278 187.564 259.005C189.958 265.727 189.005 273.193 184.997 279.099C180.99 285.005 174.407 288.645 167.274 288.903H114.688C108.747 288.903 103.051 286.544 98.8484 282.345C94.6492 278.142 92.2898 272.446 92.2898 266.505L92.3994 252.841ZM328.499 180.825V47.375C328.499 34.809 333.492 22.762 342.374 13.875C351.261 4.9922 363.312 0 375.874 0H501.374C513.94 0 525.991 4.9922 534.874 13.875C543.761 22.7617 548.749 34.809 548.749 47.375V180.825C548.749 193.387 543.761 205.438 534.874 214.325C525.992 223.208 513.94 228.2 501.374 228.2H483.901V255.305C483.901 257.723 482.933 260.043 481.214 261.742L460.214 282.742C459.558 283.395 459.19 284.282 459.19 285.207C459.19 286.133 459.558 287.02 460.214 287.672L478.917 306.32C483.53 310.969 483.53 318.468 478.917 323.121L460.214 341.824C459.558 342.476 459.19 343.363 459.19 344.289C459.19 345.211 459.558 346.097 460.214 346.75L481.214 367.75C482.933 369.453 483.901 371.773 483.901 374.191V393.625C483.909 395.731 483.062 397.754 481.55 399.223L442.351 438.422C441.362 439.41 440.023 439.969 438.628 439.969C437.23 439.969 435.89 439.41 434.901 438.422L395.702 399.223C394.23 397.738 393.421 395.715 393.464 393.625V227.975H375.878C363.351 227.975 351.335 223.014 342.456 214.178C333.581 205.342 328.561 193.346 328.503 180.823L328.499 180.825Z" fill="black"/>
</svg>
