<svg width="22" height="22" viewBox="0 0 22 22" fill="none" xmlns="http://www.w3.org/2000/svg">
<path d="M11 0C8.82441 0 6.69767 0.645139 4.88873 1.85383C3.07979 3.06253 1.66989 4.78049 0.83733 6.79048C0.00476611 8.80047 -0.213071 11.0122 0.211367 13.146C0.635804 15.2798 1.68345 17.2398 3.22183 18.7782C4.76021 20.3165 6.72022 21.3642 8.85401 21.7886C10.9878 22.2131 13.1995 21.9952 15.2095 21.1627C17.2195 20.3301 18.9375 18.9202 20.1462 17.1113C21.3549 15.3023 22 13.1756 22 11C21.9989 5.14732 16.6293 0 11 0ZM20.2604 11C20.2604 12.6387 19.4666 14.4497 18.7159 15.7822C18.7159 15.7175 18.6331 16.0226 18.6274 15.9591C18.2657 11.7156 17.5297 6.59206 17.1532 4.45216C17.1339 4.33876 17.346 4.71072 17.3267 4.60752C18.9846 6.26319 20.2604 8.46773 20.2604 10.9955V11ZM13.564 2.18526L13.8033 2.26917C12.3064 7.1534 11.0635 11.5058 11.0635 11.5058C11.0635 11.5058 9.74578 7.3099 8.43712 2.18526C10.1116 1.69991 11.8895 1.69991 13.564 2.18526ZM4.50207 4.52021L4.75835 4.33876C4.3898 6.52175 3.56083 11.6056 3.19567 15.9307C2.44495 14.5994 1.82578 12.6341 1.82578 10.9955C1.82444 9.79322 2.06013 8.60251 2.51935 7.49143C2.97857 6.38034 3.65232 5.37069 4.50207 4.52021ZM5.90031 18.6217C5.99897 17.0012 6.31536 12.6387 6.85969 7.62175C6.85969 7.62175 8.93268 14.6618 10.3003 18.6841H11.8879C13.6343 13.2125 15.1993 7.71814 15.1993 7.71814C15.7028 12.3381 15.7402 16.2233 15.857 18.0377C15.8638 18.1296 16.1859 18.5979 16.1859 18.5979C16.1859 18.5979 15.9058 18.7635 15.9103 18.8179C14.4486 19.7966 12.8893 20.1788 11 20.1788C9.18312 20.1783 7.40762 19.6362 5.90031 18.6217Z" fill="#FFC20D"/>
</svg>
