<svg width="18" height="18" viewBox="0 0 18 18" fill="black" xmlns="http://www.w3.org/2000/svg">
<path d="M8.3357 11.0692L6.92969 9.66315L14.5559 2.03673L10.6566 2.03696V0.0473633H16.9566C17.2205 0.0473633 17.4735 0.152142 17.6602 0.338563C17.8466 0.525221 17.9514 0.778259 17.9514 1.04216L17.9516 7.34216H15.962V3.44285L8.3357 11.0692Z" fill="white"/>
<path d="M14.3047 17.9526H3.69413C2.72688 17.9526 1.79917 17.5685 1.11521 16.8843C0.43105 16.2004 0.046875 15.2727 0.046875 14.3054V3.69486C0.046875 2.72759 0.431021 1.79988 1.11521 1.11594C1.79917 0.431782 2.72688 0.0476074 3.69413 0.0476074H7.34163V2.03696H3.69413C3.25442 2.03696 2.83277 2.21182 2.52192 2.52267C2.21106 2.83353 2.03621 3.25518 2.03621 3.69486V14.3054C2.03621 14.7451 2.21106 15.1667 2.52192 15.4776C2.83277 15.7884 3.25445 15.9633 3.69413 15.9633H14.3047C14.7444 15.9633 15.166 15.7884 15.4769 15.4776C15.7877 15.1667 15.9626 14.7451 15.9626 14.3054V10.6579H17.9519V14.3054C17.9519 15.2727 17.5678 16.2004 16.8836 16.8843C16.1996 17.5685 15.2719 17.9526 14.3047 17.9526Z" fill="white"/>
</svg>
