<svg width="299" height="550" viewBox="0 0 299 550" fill="none" xmlns="http://www.w3.org/2000/svg">
<path d="M224.72 17.871C189.333 6.32 151.591 0 112.36 0C73.129 0 35.383 6.3203 0 17.871V44.269H224.72V17.871Z" fill="black"/>
<path d="M0 59.207H224.72V74.359H0V59.207Z" fill="black"/>
<path d="M188.05 240.082V249.141H224.718L224.722 89.3106H0.00195312V249.151H36.666V240.092C36.666 223.588 50.0529 210.209 66.5529 210.209H158.166C174.666 210.201 188.049 223.588 188.049 240.084L188.05 240.082ZM112.355 163.207C96.714 163.207 84.031 150.523 84.031 134.879C84.031 119.231 96.719 106.555 112.355 106.555C128.003 106.555 140.695 119.239 140.695 134.879C140.695 150.527 128 163.207 112.355 163.207Z" fill="black"/>
<path d="M277.9 401.272L254.029 407.186C254.029 407.186 250.268 405.299 244.521 401.178C244.303 401.03 244.057 400.831 243.826 400.667C231.666 391.827 211.279 373.429 197.51 341.851C187.748 319.433 172.436 263.636 161.143 219.681H105.748C116.771 265.021 131.744 330.801 133.771 357.661C136.357 391.981 126.935 417.774 120.31 431.274C120.185 431.535 120.041 431.832 119.916 432.086C116.763 438.406 114.322 441.824 114.322 441.824L90.4468 447.742L111.33 531.949L137.15 525.543C156.892 544.746 185.74 553.703 214.439 546.586C243.146 539.465 264.478 518.082 272.966 491.863L298.782 485.469L277.9 401.272ZM233.72 501.602C226.927 509.223 217.88 514.954 207.251 517.582C196.622 520.21 185.927 519.383 176.368 515.824C160.653 509.973 147.973 496.722 143.641 479.25C139.313 461.781 144.333 444.133 155.493 431.617C162.286 424.004 171.348 418.277 181.973 415.644C192.598 413.007 203.274 413.84 212.832 417.402H212.844C228.563 423.25 241.25 436.504 245.578 453.976C249.918 471.449 244.898 489.093 233.719 501.601L233.72 501.602Z" fill="black"/>
</svg>
